<svg width="672" height="740" viewBox="0 0 672 740" fill="none" xmlns="http://www.w3.org/2000/svg">
<path d="M385.444 138.648C385.43 136.763 385.43 134.974 385.43 133.146C385.44 131.318 385.459 129.497 385.487 127.682C385.545 124.052 385.646 120.416 385.789 116.773C386.077 109.519 386.493 102.266 387.183 95.0314C387.508 91.4141 387.916 87.8032 388.404 84.1986C388.634 82.409 388.907 80.6194 389.194 78.8298C389.496 77.0402 389.783 75.2506 390.157 73.461C390.861 69.9199 391.665 66.3978 392.743 62.9519C393.821 59.525 395.114 56.1553 396.938 53.1472L398.418 55.4318C397.987 55.7745 397.542 56.1362 397.096 56.4979C396.646 56.866 396.206 57.2468 395.775 57.6402C394.884 58.3827 394.022 59.1823 393.145 59.9819C392.283 60.7815 391.421 61.6002 390.574 62.4188C389.74 63.2756 388.878 64.0942 388.045 64.97C387.226 65.8267 386.393 66.6834 385.574 67.5782L383.146 70.2626C381.551 72.1283 379.956 73.956 378.433 75.8979L377.284 77.3448C376.896 77.8208 376.537 78.3348 376.163 78.8298L373.936 81.7998L371.795 84.903C371.436 85.417 371.077 85.912 370.732 86.4451L369.712 88.0443C366.925 92.2518 364.439 96.7829 362.04 101.371L362.026 101.39C361.666 102.095 360.948 102.266 360.416 101.79C360.287 101.657 360.186 101.523 360.115 101.352L333.19 46.8836L335.245 46.5409L322.257 104.512C321.782 106.588 320.145 107.768 318.579 107.14C317.975 106.911 317.472 106.435 317.113 105.826L316.869 105.426C316.783 105.236 316.625 104.931 316.495 104.665L316.064 103.846C315.777 103.288 315.48 102.736 315.174 102.19C314.57 101.105 313.924 100.038 313.277 98.9723C311.955 96.859 310.562 94.8219 309.096 92.88C306.179 88.9962 302.976 85.4551 299.484 82.4851C298.622 81.7046 297.731 81.0382 296.841 80.3338L295.476 79.3629C295.016 79.0202 294.542 78.7536 294.082 78.449L293.378 77.9921C293.148 77.8398 292.904 77.7256 292.674 77.5733C292.2 77.3067 291.726 77.0212 291.237 76.7737C290.275 76.2977 289.312 75.7837 288.307 75.4029C287.33 74.946 286.324 74.6414 285.318 74.2987C284.801 74.1464 284.298 74.0131 283.781 73.8799L283.019 73.6704L282.258 73.5181L280.706 73.2326L279.14 73.0612L278.364 72.966L277.588 72.947L276.008 72.8899L276.913 70.491C278.58 73.5372 280.16 76.6214 281.712 79.7246C283.273 82.8469 284.791 85.9945 286.266 89.1676C289.212 95.5454 292.042 102.037 294.642 108.701C295.936 112.033 297.2 115.402 298.378 118.829C299.556 122.256 300.691 125.721 301.697 129.281C302.731 132.822 303.68 136.401 304.47 140.114C305.26 143.807 305.921 147.577 306.381 151.442L304.111 148.129C304.858 148.377 305.691 148.624 306.481 148.852L308.909 149.538C310.528 149.969 312.156 150.376 313.794 150.756C317.06 151.531 320.341 152.203 323.636 152.774C326.921 153.333 330.221 153.79 333.535 154.145C335.187 154.336 336.84 154.469 338.506 154.602C340.158 154.697 341.811 154.811 343.477 154.85C346.782 154.945 350.101 154.945 353.405 154.716C356.71 154.507 360.014 154.164 363.29 153.555C363.692 153.479 364.109 153.422 364.511 153.326L365.732 153.06L366.954 152.793L367.571 152.641L368.175 152.489L370.603 151.822L372.988 151.023C376.177 149.9 379.295 148.491 382.284 146.701H382.298C382.887 146.358 383.577 146.701 383.835 147.463C384.094 148.224 383.85 149.1 383.304 149.481C380.229 151.518 377.025 153.174 373.749 154.545L371.293 155.516L368.807 156.335L368.189 156.544L367.557 156.734L366.307 157.077L365.057 157.439C364.64 157.553 364.209 157.629 363.793 157.743C360.431 158.581 357.054 159.114 353.664 159.533C350.273 159.971 346.868 160.18 343.463 160.275C341.768 160.333 340.072 160.314 338.362 160.314C336.667 160.275 334.972 160.237 333.276 160.142C329.876 159.977 326.481 159.704 323.09 159.324C319.709 158.943 316.332 158.454 312.961 157.858C311.275 157.566 309.589 157.242 307.904 156.887C307.061 156.709 306.218 156.525 305.375 156.335C304.527 156.144 303.708 155.954 302.818 155.725L302.703 155.687C301.51 155.287 300.677 153.936 300.562 152.413C300.016 145.426 298.708 138.381 297.013 131.471C296.18 128.025 295.217 124.598 294.211 121.19C293.191 117.782 292.099 114.412 290.95 111.062C288.68 104.36 286.151 97.7919 283.493 91.2999C282.162 88.0634 280.788 84.8522 279.37 81.6665C277.962 78.4871 276.511 75.3077 275.017 72.2426C274.629 71.5762 274.744 70.6243 275.247 70.1293C275.433 69.9389 275.649 69.8437 275.864 69.8437L275.907 69.8247L277.574 69.7295L278.407 69.6724H279.241L280.907 69.7105L282.574 69.8628L283.407 69.9389L284.226 70.0722C284.786 70.1674 285.347 70.2626 285.893 70.3768C286.985 70.6434 288.091 70.8718 289.169 71.2526C290.275 71.5572 291.338 72.0141 292.416 72.4139C292.947 72.6424 293.464 72.9089 293.996 73.1374C294.255 73.2706 294.528 73.3849 294.786 73.5181L295.562 73.9179C296.079 74.2035 296.611 74.451 297.114 74.7747L298.651 75.6885C299.657 76.3358 300.662 76.9831 301.639 77.7066C305.562 80.5623 309.211 84.0463 312.587 87.911C314.283 89.8529 315.906 91.9027 317.458 94.0604C318.219 95.1265 318.981 96.2308 319.714 97.3731C320.087 97.9315 320.456 98.509 320.82 99.1055L321.351 100C321.538 100.305 321.696 100.591 321.912 100.971L316.524 101.904L333.061 45.5509C333.262 44.7513 333.923 44.3135 334.526 44.599C334.785 44.7133 334.986 44.9227 335.13 45.2083L362.04 99.6767H360.115C362.571 94.9742 365.1 90.3479 367.945 86.0453L368.994 84.427C369.339 83.8749 369.712 83.3609 370.071 82.8469L372.269 79.6865L374.525 76.6404C374.913 76.1454 375.287 75.6314 375.675 75.1364L376.853 73.6704C378.39 71.6905 380.014 69.8247 381.637 67.9399L384.108 65.1984C384.941 64.3036 385.789 63.4279 386.637 62.5331C387.47 61.6573 388.347 60.8196 389.209 59.9629C390.071 59.1062 390.947 58.2875 391.823 57.4689C392.714 56.6502 393.591 55.8316 394.496 55.0701C394.946 54.6766 395.401 54.2895 395.861 53.9087C396.321 53.5089 396.78 53.1472 397.269 52.7664C397.815 52.3476 398.533 52.5761 398.849 53.3186C399.093 53.8516 399.05 54.4989 398.806 54.9749L398.749 55.051C397.24 57.7735 396.134 60.9529 395.229 64.2275C394.323 67.5211 393.648 70.948 393.088 74.3939C392.786 76.1264 392.556 77.8779 392.326 79.6294C392.111 81.3809 391.895 83.1324 391.723 84.903C391.368 88.4314 391.086 91.9725 390.875 95.5263C390.444 102.647 390.243 109.805 390.2 116.944C390.181 120.524 390.2 124.103 390.257 127.682C390.286 129.472 390.324 131.261 390.372 133.051C390.415 134.821 390.473 136.63 390.559 138.362V138.381C390.645 140.247 389.568 141.865 388.16 141.961C386.752 142.075 385.531 140.647 385.459 138.781C385.444 138.743 385.444 138.686 385.444 138.648Z" fill="#52B936"/>
<path d="M330.385 23.4099C325.745 25.5612 326.305 40.2206 333.575 39.5162C341.678 38.7547 338.776 19.5451 330.385 23.4099Z" fill="#52B936"/>
<path d="M339.583 113.537C332.629 116.735 333.463 138.648 344.339 137.62C356.45 136.478 352.111 107.749 339.583 113.537Z" fill="#52B936"/>
<path d="M258.751 60.4586C256.941 66.5318 265.69 75.5369 270.044 67.8074C274.9 59.164 262.027 49.5307 258.751 60.4586Z" fill="#52B936"/>
<path d="M406.604 35.0232C402.021 32.6624 395.268 44.2948 401.144 50.0253C407.681 56.4031 414.879 39.2877 406.604 35.0232Z" fill="#52B936"/>
<path d="M302.026 139.981C302.385 139.372 302.673 139.086 302.946 138.896C303.204 138.725 303.434 138.686 303.664 138.763C304.095 138.902 304.531 139.042 304.972 139.181C305.843 139.448 306.724 139.702 307.615 139.943C309.382 140.419 311.164 140.876 312.96 141.238C316.537 141.999 320.143 142.57 323.764 142.951C331.005 143.789 338.289 143.808 345.531 143.141C352.772 142.418 359.984 140.971 367.024 138.534L368.346 138.096L369.653 137.582C370.53 137.259 371.406 136.935 372.283 136.573L374.869 135.45C375.3 135.26 375.745 135.069 376.162 134.86L377.455 134.232C378.303 133.813 379.165 133.413 380.012 132.975L382.541 131.566C382.958 131.338 383.389 131.109 383.805 130.862L385.041 130.1L387.527 128.577L387.555 128.558C387.914 128.349 388.345 128.558 388.518 129.034C388.676 129.491 388.547 130.024 388.216 130.272C384.983 132.689 381.693 135.031 378.26 136.916L376.981 137.677C376.55 137.925 376.119 138.115 375.688 138.344L373.073 139.696C372.197 140.114 371.32 140.495 370.429 140.895L369.108 141.504L367.771 142.037L365.085 143.084L362.384 144.017C361.478 144.341 360.559 144.588 359.654 144.855L358.289 145.255L357.599 145.464L356.91 145.635L354.165 146.302C353.246 146.511 352.312 146.683 351.393 146.873L350.013 147.139L348.62 147.368C347.686 147.501 346.766 147.673 345.832 147.787C342.126 148.301 338.39 148.529 334.655 148.586C330.919 148.644 327.183 148.51 323.462 148.168C319.741 147.825 316.02 147.254 312.328 146.492C310.489 146.13 308.635 145.693 306.796 145.198C305.877 144.956 304.962 144.696 304.052 144.417C303.592 144.29 303.133 144.15 302.673 143.998C302.443 143.922 302.227 143.732 302.055 143.389C301.868 143.065 301.71 142.608 301.624 141.828C301.552 141.2 301.696 140.59 301.954 140.114L302.026 139.981Z" fill="#52B936"/>
<path d="M271.594 79.5724C274.582 84.351 277.298 89.339 279.87 94.4984C282.441 99.6577 284.798 104.988 286.938 110.51C288.002 113.264 288.998 116.069 289.927 118.924C290.846 121.78 291.689 124.687 292.456 127.644C293.188 130.614 293.835 133.622 294.352 136.687C294.855 139.752 295.228 142.875 295.458 146.035C295.544 147.158 294.912 148.167 294.05 148.262C293.203 148.377 292.441 147.539 292.369 146.416C292.369 146.39 292.365 146.371 292.355 146.359V146.32C292.211 143.37 291.924 140.4 291.522 137.468C291.076 134.517 290.53 131.604 289.884 128.729C289.213 125.848 288.466 122.992 287.642 120.162C286.79 117.357 285.875 114.584 284.898 111.842C282.93 106.359 280.717 101.009 278.304 95.831C275.89 90.6526 273.289 85.5694 270.488 80.8098L270.473 80.7718C270.215 80.3529 270.272 79.7627 270.588 79.4391C270.904 79.1154 271.35 79.1725 271.594 79.5724Z" fill="#52B936"/>
<path d="M322.773 107.654L334.339 63.009C334.468 62.514 334.87 62.2475 335.258 62.4188C335.618 62.5901 335.819 63.1042 335.704 63.5992L325.273 108.739C325.057 109.653 324.325 110.167 323.635 109.881C322.931 109.596 322.543 108.625 322.759 107.711C322.759 107.692 322.773 107.673 322.773 107.654Z" fill="#52B936"/>
<path d="M296.222 156.81C297.515 157.477 298.866 158.124 300.202 158.714L302.228 159.59L304.268 160.409L305.288 160.808L306.308 161.189L308.363 161.932C309.052 162.179 309.742 162.408 310.432 162.617L312.5 163.283C313.88 163.759 315.288 164.102 316.667 164.502L318.75 165.092L320.848 165.587C322.256 165.911 323.65 166.272 325.058 166.577L329.267 167.396C330.675 167.7 332.083 167.891 333.491 168.1L337.73 168.728L341.982 169.166L344.109 169.395C344.468 169.414 344.813 169.471 345.172 169.49L346.235 169.547L350.488 169.794L352.614 169.909C353.333 169.928 354.037 169.909 354.755 169.928L359.008 169.947L361.134 169.966L363.275 169.871L367.528 169.661L369.654 169.566C370.358 169.528 371.062 169.433 371.78 169.376L376.019 168.938L378.145 168.728L379.208 168.633L380.257 168.481C383.087 168.1 385.889 167.643 388.676 167.072C391.464 166.501 394.222 165.815 396.923 164.902C399.61 163.988 402.254 162.864 404.552 161.246C405.687 160.447 406.736 159.495 407.44 158.429C407.785 157.896 408.029 157.343 408.173 156.829C408.317 156.296 408.345 155.782 408.288 155.211C408.173 154.069 407.627 152.736 406.851 151.499C406.075 150.261 405.098 149.119 404.049 148.072C403.001 147.025 401.88 146.054 400.702 145.197C400.127 144.778 399.524 144.378 398.935 144.017C398.331 143.655 397.728 143.331 397.182 143.084L397.153 143.065C396.032 142.589 395.429 141.009 395.803 139.524C396.162 138.058 397.369 137.258 398.475 137.734C398.489 137.734 398.504 137.753 398.518 137.753C399.308 138.115 400.027 138.534 400.716 138.991C401.42 139.428 402.095 139.904 402.742 140.418C404.064 141.427 405.328 142.532 406.549 143.807C407.756 145.083 408.92 146.473 409.94 148.186C410.457 149.043 410.931 149.976 411.334 151.042C411.722 152.089 412.038 153.288 412.153 154.602C412.268 155.916 412.153 157.324 411.779 158.581C411.42 159.818 410.874 160.885 410.271 161.779C409.667 162.674 409.006 163.359 408.331 163.988C407.67 164.635 406.966 165.13 406.276 165.625C403.475 167.472 400.616 168.557 397.757 169.452C394.897 170.347 392.038 170.975 389.165 171.489C386.291 172.003 383.418 172.384 380.559 172.707L379.481 172.822L378.404 172.898L376.249 173.05L371.938 173.374C371.22 173.412 370.502 173.488 369.783 173.507L367.628 173.545L363.304 173.64L361.148 173.678L358.993 173.602L354.683 173.469C353.965 173.431 353.246 173.431 352.528 173.374L350.373 173.202L346.077 172.841L345 172.764C344.64 172.726 344.281 172.669 343.922 172.631L341.781 172.346L337.485 171.793L333.218 171.032C331.796 170.784 330.373 170.556 328.951 170.213L324.698 169.261C323.29 168.938 321.882 168.519 320.474 168.157L318.362 167.586L316.265 166.939C314.871 166.501 313.463 166.12 312.069 165.606L309.986 164.864C309.297 164.635 308.607 164.388 307.917 164.102L305.848 163.302L304.814 162.903L303.794 162.465L301.739 161.589L299.699 160.637C298.334 159.99 296.998 159.323 295.648 158.562C295.288 158.352 295.116 157.8 295.26 157.305C295.418 156.829 295.834 156.601 296.193 156.791L296.222 156.81Z" fill="#52B936"/>
<path d="M382.613 172.46C382.613 172.46 390.171 172.061 391.047 173.603C391.909 175.145 389.883 186.263 391.909 187.405C393.935 188.567 394.222 185.502 393.073 184.34C391.909 183.198 392.785 183.579 393.647 182.817C394.509 182.037 392.785 179.352 392.785 178.21C392.785 177.049 391.622 172.061 392.785 172.46C393.935 172.841 394.222 174.745 397.124 174.745C400.012 174.745 399.15 169.757 402.038 169.757C404.94 169.757 405.802 166.692 407.253 167.073C408.704 167.472 409.279 168.234 409.279 171.68C409.279 175.145 407.541 176.668 408.13 178.971C408.704 181.275 411.305 180.133 410.443 183.198C409.567 186.263 408.992 189.328 410.73 189.328C412.469 189.328 412.181 186.263 411.592 185.121C411.018 183.959 413.618 179.733 411.592 178.971C409.567 178.21 408.992 177.448 410.73 174.745C412.469 172.061 410.156 168.615 411.018 166.311C411.88 164.007 415.357 158.639 412.181 154.412C412.181 154.412 412.756 161.323 405.515 164.007C398.274 166.692 382.613 172.46 382.613 172.46Z" fill="#52B936"/>
<path d="M300.79 153.574C300.79 153.574 299.267 157.496 306.221 158.258C313.16 159.019 313.16 158.639 315.775 161.323C318.375 164.007 328.246 166.121 329.093 159.895L300.79 153.574Z" fill="#52B936"/>
<path d="M403.459 51.3579C403.459 51.3579 404.939 50.4631 404.651 55.0704C404.364 59.6586 403.488 68.1116 404.651 72.319C405.801 76.5455 406.088 78.8492 405.513 83.0566C404.939 87.2831 404.364 93.8132 407.252 94.194C410.154 94.5747 409.852 84.5987 408.416 82.2951C406.965 79.9914 409.278 73.4804 408.416 71.5575C407.539 69.6346 406.965 63.5043 406.677 60.4392C406.39 57.355 405.514 52.367 407.539 52.7668C409.565 53.1475 411.907 45.437 410.312 42.5813L403.459 51.3579Z" fill="#52B936"/>
<path d="M399.25 46.9412C399.25 46.9412 399.437 50.4632 400.601 51.6055C401.75 52.7669 402.914 55.4513 402.626 59.2779C402.339 63.1237 403.144 64.0375 404.178 62.0385C405.227 60.0395 404.652 58.1357 405.227 56.9743C405.802 55.832 406.391 47.6075 406.391 47.6075L399.25 46.9412Z" fill="#52B936"/>
<path d="M310.662 95.0131C310.662 95.0131 312.587 102.248 313.449 107.616C314.326 112.985 312.587 121.038 315.777 121.438C318.952 121.819 315.475 112.224 316.639 110.682C317.803 109.158 319.239 110.301 319.239 114.527C319.239 118.735 322.242 118.24 321.466 106.208L310.662 95.0131Z" fill="#52B936"/>
</svg>
