<svg width="24.000000" height="24.000000" viewBox="0 0 24 24" fill="none" xmlns="http://www.w3.org/2000/svg" xmlns:xlink="http://www.w3.org/1999/xlink">
	<desc>
			Created with Pixso.
	</desc>
	<defs>
		<clipPath id="clip63_23">
			<rect id="ph:brain" rx="0.000000" width="23.000000" height="23.000000" transform="translate(0.500000 0.500000)" fill="white" fill-opacity="0"/>
		</clipPath>
	</defs>
	<rect id="ph:brain" rx="0.000000" width="23.000000" height="23.000000" transform="translate(0.500000 0.500000)" fill="#FFFFFF" fill-opacity="0"/>
	<g clip-path="url(#clip63_23)">
		<path id="Vector" d="M23.25 11.62C23.24 10.63 22.96 9.65 22.43 8.81C21.9 7.97 21.14 7.3 20.25 6.88L20.25 6.75C20.24 5.78 19.93 4.84 19.36 4.06C18.78 3.29 17.97 2.72 17.04 2.44C16.12 2.16 15.13 2.19 14.22 2.52C13.31 2.84 12.53 3.46 12 4.26C11.46 3.46 10.68 2.84 9.77 2.52C8.86 2.19 7.87 2.16 6.95 2.44C6.02 2.72 5.21 3.29 4.63 4.06C4.06 4.84 3.75 5.78 3.74 6.75L3.74 6.88C2.85 7.3 2.09 7.97 1.56 8.81C1.03 9.65 0.74 10.63 0.74 11.62C0.74 12.61 1.03 13.59 1.56 14.43C2.09 15.27 2.85 15.94 3.74 16.36L3.74 16.5C3.75 17.46 4.06 18.4 4.63 19.18C5.21 19.95 6.02 20.52 6.95 20.8C7.87 21.08 8.86 21.05 9.77 20.72C10.68 20.4 11.46 19.78 12 18.98C12.53 19.78 13.31 20.4 14.22 20.72C15.13 21.05 16.12 21.08 17.04 20.8C17.97 20.52 18.78 19.95 19.36 19.18C19.93 18.4 20.24 17.46 20.25 16.5L20.25 16.36C21.14 15.94 21.9 15.26 22.43 14.42C22.96 13.59 23.24 12.61 23.25 11.62ZM8.24 19.5C7.51 19.49 6.79 19.22 6.24 18.73C5.69 18.23 5.34 17.55 5.26 16.82C5.51 16.85 5.75 16.87 5.99 16.87L6.74 16.87C6.94 16.87 7.13 16.79 7.28 16.65C7.42 16.51 7.49 16.32 7.49 16.12C7.49 15.92 7.42 15.73 7.28 15.59C7.13 15.45 6.94 15.37 6.74 15.37L5.99 15.37C5.11 15.37 4.25 15.06 3.58 14.49C2.9 13.92 2.44 13.13 2.29 12.25C2.14 11.38 2.31 10.48 2.76 9.72C3.21 8.96 3.91 8.38 4.75 8.08C4.89 8.03 5.02 7.94 5.11 7.81C5.2 7.68 5.24 7.53 5.24 7.38L5.24 6.75C5.24 5.95 5.56 5.19 6.12 4.62C6.69 4.06 7.45 3.75 8.24 3.75C9.04 3.75 9.8 4.06 10.37 4.62C10.93 5.19 11.25 5.95 11.25 6.75L11.25 13.14C10.42 12.4 9.35 11.99 8.24 12C8.05 12 7.86 12.07 7.71 12.21C7.57 12.36 7.49 12.55 7.49 12.75C7.49 12.94 7.57 13.13 7.71 13.28C7.86 13.42 8.05 13.5 8.24 13.5C9.04 13.5 9.8 13.81 10.37 14.37C10.93 14.94 11.25 15.7 11.25 16.5C11.25 17.29 10.93 18.05 10.37 18.62C9.8 19.18 9.04 19.5 8.24 19.5ZM18 15.37L17.25 15.37C17.05 15.37 16.86 15.45 16.71 15.59C16.57 15.73 16.5 15.92 16.5 16.12C16.5 16.32 16.57 16.51 16.71 16.65C16.86 16.79 17.05 16.87 17.25 16.87L18 16.87C18.24 16.87 18.48 16.85 18.73 16.82C18.66 17.39 18.44 17.94 18.07 18.39C17.71 18.84 17.22 19.17 16.67 19.35C16.11 19.53 15.52 19.54 14.96 19.39C14.4 19.24 13.9 18.93 13.51 18.5C13.12 18.07 12.87 17.53 12.78 16.96C12.69 16.39 12.77 15.8 13 15.27C13.24 14.74 13.63 14.29 14.11 13.98C14.6 13.66 15.17 13.49 15.75 13.5C15.94 13.5 16.13 13.42 16.28 13.28C16.42 13.13 16.5 12.94 16.5 12.75C16.5 12.55 16.42 12.36 16.28 12.21C16.13 12.07 15.94 12 15.75 12C14.64 11.99 13.57 12.4 12.75 13.14L12.75 6.75C12.75 5.95 13.06 5.19 13.62 4.62C14.19 4.06 14.95 3.75 15.75 3.75C16.54 3.75 17.3 4.06 17.87 4.62C18.43 5.19 18.75 5.95 18.75 6.75L18.75 7.38C18.75 7.53 18.79 7.68 18.88 7.81C18.97 7.94 19.1 8.03 19.24 8.08C20.08 8.38 20.78 8.96 21.23 9.72C21.68 10.48 21.85 11.38 21.7 12.25C21.55 13.13 21.09 13.92 20.41 14.49C19.74 15.06 18.88 15.37 18 15.37ZM19.5 10.5C19.5 10.69 19.42 10.88 19.28 11.03C19.13 11.17 18.94 11.25 18.75 11.25L18.37 11.25C17.47 11.25 16.62 10.89 15.98 10.26C15.35 9.62 15 8.77 15 7.87L15 7.5C15 7.3 15.07 7.11 15.21 6.96C15.36 6.82 15.55 6.75 15.75 6.75C15.94 6.75 16.13 6.82 16.28 6.96C16.42 7.11 16.5 7.3 16.5 7.5L16.5 7.87C16.5 8.37 16.69 8.84 17.04 9.2C17.4 9.55 17.87 9.75 18.37 9.75L18.75 9.75C18.94 9.75 19.13 9.82 19.28 9.96C19.42 10.11 19.5 10.3 19.5 10.5ZM5.62 11.25L5.24 11.25C5.05 11.25 4.86 11.17 4.71 11.03C4.57 10.88 4.49 10.69 4.49 10.5C4.49 10.3 4.57 10.11 4.71 9.96C4.86 9.82 5.05 9.75 5.24 9.75L5.62 9.75C6.12 9.75 6.59 9.55 6.95 9.2C7.3 8.84 7.49 8.37 7.49 7.87L7.49 7.5C7.49 7.3 7.57 7.11 7.71 6.96C7.86 6.82 8.05 6.75 8.24 6.75C8.44 6.75 8.63 6.82 8.78 6.96C8.92 7.11 8.99 7.3 8.99 7.5L8.99 7.87C8.99 8.77 8.64 9.62 8.01 10.26C7.37 10.89 6.52 11.25 5.62 11.25Z" fill="#000000" fill-opacity="1.000000" fill-rule="nonzero"/>
	</g>
</svg>
