<svg width="24.000000" height="24.000000" viewBox="0 0 24 24" fill="none" xmlns="http://www.w3.org/2000/svg" xmlns:xlink="http://www.w3.org/1999/xlink">
	<desc>
			Created with Pixso.
	</desc>
	<defs>
		<clipPath id="clip63_20">
			<rect id="fluent:people-team-16-regular" rx="0.000000" width="23.000000" height="23.000000" transform="translate(0.500000 0.500000)" fill="white" fill-opacity="0"/>
		</clipPath>
	</defs>
	<rect id="fluent:people-team-16-regular" rx="0.000000" width="23.000000" height="23.000000" transform="translate(0.500000 0.500000)" fill="#FFFFFF" fill-opacity="0"/>
	<g clip-path="url(#clip63_20)">
		<path id="Vector" d="M9 6C9 5.2 9.31 4.44 9.88 3.88C10.44 3.31 11.2 3 12 3C12.79 3 13.55 3.31 14.11 3.88C14.68 4.44 14.99 5.2 14.99 6C14.99 6.79 14.68 7.55 14.11 8.11C13.55 8.68 12.79 8.99 12 8.99C11.2 8.99 10.44 8.68 9.88 8.11C9.31 7.55 9 6.79 9 6ZM12 4.5C11.8 4.5 11.6 4.54 11.42 4.61C11.24 4.69 11.08 4.8 10.94 4.94C10.8 5.08 10.69 5.24 10.61 5.42C10.54 5.6 10.5 5.8 10.5 6C10.5 6.19 10.54 6.39 10.61 6.57C10.69 6.75 10.8 6.91 10.94 7.05C11.08 7.19 11.24 7.3 11.42 7.38C11.6 7.45 11.8 7.49 12 7.49C12.39 7.49 12.77 7.33 13.05 7.05C13.33 6.77 13.49 6.39 13.49 6C13.49 5.6 13.33 5.22 13.05 4.94C12.77 4.66 12.39 4.5 12 4.5ZM16.5 6.75C16.5 6.45 16.55 6.16 16.67 5.88C16.78 5.61 16.95 5.36 17.15 5.15C17.36 4.94 17.61 4.78 17.88 4.67C18.16 4.55 18.45 4.5 18.75 4.5C19.04 4.5 19.33 4.55 19.61 4.67C19.88 4.78 20.13 4.94 20.34 5.15C20.54 5.36 20.71 5.61 20.82 5.88C20.94 6.16 21 6.45 21 6.75C21 7.34 20.76 7.91 20.34 8.34C19.91 8.76 19.34 9 18.75 9C18.15 9 17.58 8.76 17.15 8.34C16.73 7.91 16.5 7.34 16.5 6.75ZM18.75 6C18.55 6 18.36 6.07 18.21 6.21C18.07 6.36 18 6.55 18 6.75C18 6.94 18.07 7.13 18.21 7.28C18.36 7.42 18.55 7.5 18.75 7.5C18.94 7.5 19.13 7.42 19.28 7.28C19.42 7.13 19.5 6.94 19.5 6.75C19.5 6.55 19.42 6.36 19.28 6.21C19.13 6.07 18.94 6 18.75 6ZM5.25 4.5C4.65 4.5 4.08 4.73 3.65 5.15C3.23 5.58 3 6.15 3 6.75C3 7.34 3.23 7.91 3.65 8.34C4.08 8.76 4.65 9 5.25 9C5.84 9 6.41 8.76 6.84 8.34C7.26 7.91 7.5 7.34 7.5 6.75C7.5 6.15 7.26 5.58 6.84 5.15C6.41 4.73 5.84 4.5 5.25 4.5ZM4.5 6.75C4.5 6.55 4.57 6.36 4.71 6.21C4.86 6.07 5.05 6 5.25 6C5.44 6 5.63 6.07 5.78 6.21C5.92 6.36 6 6.55 6 6.75C6 6.94 5.92 7.13 5.78 7.28C5.63 7.42 5.44 7.5 5.25 7.5C5.05 7.5 4.86 7.42 4.71 7.28C4.57 7.13 4.5 6.94 4.5 6.75ZM6.4 10.5C6.13 10.95 6 11.47 6 12L3 12L3 15.75C2.99 16.12 3.09 16.49 3.26 16.81C3.44 17.14 3.7 17.42 4.01 17.63C4.32 17.83 4.68 17.96 5.05 17.99C5.42 18.02 5.8 17.96 6.14 17.81C6.25 18.31 6.42 18.78 6.65 19.22C6.08 19.45 5.46 19.54 4.85 19.48C4.24 19.41 3.66 19.2 3.15 18.85C2.64 18.51 2.22 18.05 1.93 17.51C1.65 16.96 1.49 16.36 1.5 15.75L1.5 12C1.5 11.6 1.65 11.22 1.93 10.93C2.22 10.65 2.6 10.5 3 10.5L6.4 10.5ZM17.34 19.22C17.91 19.45 18.53 19.54 19.14 19.48C19.75 19.41 20.33 19.2 20.84 18.85C21.35 18.51 21.77 18.05 22.06 17.51C22.34 16.96 22.5 16.36 22.5 15.75L22.5 12C22.5 11.6 22.34 11.22 22.06 10.93C21.77 10.65 21.39 10.5 21 10.5L17.59 10.5C17.85 10.94 18 11.45 18 12L21 12L21 15.75C21 16.12 20.9 16.49 20.73 16.81C20.55 17.14 20.29 17.42 19.98 17.63C19.67 17.83 19.31 17.96 18.94 17.99C18.57 18.02 18.19 17.96 17.85 17.81C17.74 18.31 17.57 18.78 17.34 19.22ZM9 10.49C8.6 10.49 8.22 10.65 7.93 10.93C7.65 11.21 7.5 11.6 7.5 11.99L7.5 16.5C7.5 17.69 7.97 18.83 8.81 19.68C9.66 20.52 10.8 21 12 21C13.19 21 14.33 20.52 15.18 19.68C16.02 18.83 16.5 17.69 16.5 16.5L16.5 12C16.5 11.6 16.34 11.22 16.06 10.93C15.77 10.65 15.39 10.5 15 10.5L9 10.49ZM9 11.99L15 11.99L15 16.5C15 17.29 14.68 18.05 14.12 18.62C13.55 19.18 12.79 19.5 12 19.5C11.2 19.5 10.44 19.18 9.87 18.62C9.31 18.05 9 17.29 9 16.5L9 11.99Z" fill="#000000" fill-opacity="1.000000" fill-rule="nonzero"/>
	</g>
</svg>
