<svg width="24.000000" height="24.000000" viewBox="0 0 24 24" fill="none" xmlns="http://www.w3.org/2000/svg" xmlns:xlink="http://www.w3.org/1999/xlink">
	<desc>
			Created with Pixso.
	</desc>
	<defs>
		<clipPath id="clip63_26">
			<rect id="pixelarticons:search" rx="0.000000" width="23.000000" height="23.000000" transform="translate(0.500000 0.500000)" fill="white" fill-opacity="0"/>
		</clipPath>
	</defs>
	<rect id="pixelarticons:search" rx="0.000000" width="23.000000" height="23.000000" transform="translate(0.500000 0.500000)" fill="#FFFFFF" fill-opacity="0"/>
	<g clip-path="url(#clip63_26)">
		<path id="Vector" d="M6 2L14 2L14 4L6 4L6 2ZM4 6L4 4L6 4L6 6L4 6ZM4 14L2 14L2 6L4 6L4 14ZM6 16L4 16L4 14L6 14L6 16ZM14 16L14 18L6 18L6 16L14 16ZM16 14L14 14L14 16L16 16L16 18L18 18L18 20L20 20L20 22L22 22L22 20L20 20L20 18L18 18L18 16L16 16L16 14ZM16 6L18 6L18 14L16 14L16 6ZM16 6L16 4L14 4L14 6L16 6Z" fill="#000000" fill-opacity="1.000000" fill-rule="nonzero"/>
	</g>
</svg>
