<svg width="36.000000" height="36.000000" viewBox="0 0 36 36" fill="none" xmlns="http://www.w3.org/2000/svg" xmlns:xlink="http://www.w3.org/1999/xlink">
	<desc>
			Created with Pixso.
	</desc>
	<defs>
		<clipPath id="clip61_462">
			<rect id="ri:google-fill" rx="0.000000" width="35.000000" height="35.000000" transform="translate(0.500000 0.500000)" fill="white" fill-opacity="0"/>
		</clipPath>
	</defs>
	<rect id="ri:google-fill" rx="0.000000" width="35.000000" height="35.000000" transform="translate(0.500000 0.500000)" fill="#FFFFFF" fill-opacity="0"/>
	<g clip-path="url(#clip61_462)">
		<path id="Vector" d="M4.59 11.26C5.84 8.78 7.75 6.69 10.12 5.23C12.49 3.77 15.21 2.99 18 3C22.04 3 25.43 4.48 28.03 6.9L23.73 11.2C22.17 9.72 20.2 8.96 18 8.96C14.09 8.96 10.78 11.6 9.6 15.15C9.3 16.04 9.13 17.01 9.13 18C9.13 18.99 9.3 19.95 9.6 20.85C10.78 24.39 14.09 27.03 18 27.03C20.01 27.03 21.73 26.5 23.07 25.6C23.85 25.08 24.52 24.42 25.03 23.64C25.55 22.86 25.9 21.99 26.07 21.07L18 21.07L18 15.27L32.12 15.27C32.3 16.25 32.4 17.27 32.4 18.34C32.4 22.9 30.76 26.75 27.92 29.36C25.44 31.65 22.05 33 18 33C16.02 33 14.07 32.61 12.25 31.85C10.43 31.1 8.78 30 7.39 28.6C5.99 27.21 4.89 25.56 4.14 23.74C3.38 21.92 2.99 19.97 3 18C3 15.57 3.57 13.29 4.59 11.26Z" fill="#FFFFFF" fill-opacity="1.000000" fill-rule="nonzero"/>
	</g>
</svg>
