<svg width="36.000000" height="36.000000" viewBox="0 0 36 36" fill="none" xmlns="http://www.w3.org/2000/svg" xmlns:xlink="http://www.w3.org/1999/xlink">
	<desc>
			Created with Pixso.
	</desc>
	<defs>
		<clipPath id="clip61_467">
			<rect id="ic:outline-apple" rx="0.000000" width="35.000000" height="35.000000" transform="translate(0.500000 0.500000)" fill="white" fill-opacity="0"/>
		</clipPath>
	</defs>
	<rect id="ic:outline-apple" rx="0.000000" width="35.000000" height="35.000000" transform="translate(0.500000 0.500000)" fill="#FFFFFF" fill-opacity="0"/>
	<g clip-path="url(#clip61_467)">
		<path id="Vector" d="M27.56 34.09C25.66 35.94 23.58 35.65 21.58 34.77C19.46 33.88 17.51 33.84 15.28 34.77C12.48 35.98 11 35.63 9.33 34.09C-0.16 24.31 1.24 9.42 12.01 8.87C14.64 9.01 16.46 10.31 18 10.43C20.29 9.96 22.49 8.62 24.94 8.8C27.88 9.03 30.09 10.2 31.55 12.3C25.48 15.93 26.92 23.92 32.48 26.16C31.37 29.07 29.94 31.97 27.54 34.11L27.56 34.09ZM17.8 8.76C17.51 4.42 21.03 0.84 25.08 0.5C25.64 5.51 20.53 9.24 17.8 8.76Z" fill="#FFFFFF" fill-opacity="1.000000" fill-rule="nonzero"/>
	</g>
</svg>
