<svg width="36.000000" height="36.000000" viewBox="0 0 36 36" fill="none" xmlns="http://www.w3.org/2000/svg" xmlns:xlink="http://www.w3.org/1999/xlink">
	<desc>
			Created with Pixso.
	</desc>
	<defs>
		<clipPath id="clip61_452">
			<rect id="mingcute:meta-line" rx="0.000000" width="35.000000" height="35.000000" transform="translate(0.500000 0.500000)" fill="white" fill-opacity="0"/>
		</clipPath>
	</defs>
	<rect id="mingcute:meta-line" rx="0.000000" width="35.000000" height="35.000000" transform="translate(0.500000 0.500000)" fill="#FFFFFF" fill-opacity="0"/>
	<g clip-path="url(#clip61_452)">
		<path id="Vector" d="M10.76 5.51C7.87 5.31 5.57 6.99 3.96 9.1C2.34 11.22 1.21 14.02 0.57 16.83C-0.05 19.63 -0.21 22.6 0.3 25.1C0.79 27.52 2.04 30 4.68 30.79C7.2 31.54 9.45 30.48 11.18 29.02C12.91 27.57 14.4 25.5 15.61 23.5C16.55 21.93 17.36 20.33 18 18.96C18.63 20.33 19.44 21.93 20.38 23.5C21.59 25.5 23.08 27.57 24.81 29.02C26.54 30.48 28.79 31.54 31.31 30.79C33.95 30 35.2 27.52 35.69 25.1C36.2 22.6 36.04 19.63 35.41 16.83C34.78 14.02 33.64 11.21 32.03 9.1C30.42 6.99 28.12 5.31 25.23 5.51C22.09 5.73 19.85 8.17 18.55 10.02C18.36 10.29 18.17 10.58 18 10.86C17.82 10.57 17.63 10.29 17.44 10.02C16.14 8.17 13.9 5.73 10.76 5.51ZM15.92 14.61C15.41 15.91 14.17 18.87 12.5 21.63C11.38 23.5 10.12 25.18 8.84 26.25C7.56 27.33 6.56 27.57 5.72 27.32C5 27.11 4.24 26.31 3.85 24.37C3.47 22.51 3.56 20.07 4.11 17.62C4.66 15.17 5.63 12.89 6.84 11.29C8.07 9.69 9.32 9.04 10.51 9.13C11.9 9.22 13.28 10.4 14.47 12.1C15.14 13.05 15.64 14.01 15.92 14.61L15.92 14.61ZM20.07 14.61C20.58 15.91 21.83 18.87 23.49 21.63C24.61 23.5 25.87 25.18 27.15 26.25C28.43 27.33 29.43 27.57 30.27 27.32C30.99 27.11 31.75 26.31 32.14 24.37C32.52 22.51 32.43 20.07 31.88 17.62C31.33 15.17 30.36 12.89 29.15 11.29C27.92 9.69 26.67 9.04 25.48 9.13C24.09 9.22 22.71 10.4 21.52 12.1C20.96 12.9 20.48 13.74 20.07 14.61L20.07 14.61Z" fill="#FFFFFF" fill-opacity="1.000000" fill-rule="evenodd"/>
	</g>
</svg>
