<svg width="24" height="24" viewBox="0 0 24 24" fill="none" xmlns="http://www.w3.org/2000/svg">
<path fill-rule="evenodd" clip-rule="evenodd" d="M10.4998 2.00024C9.14436 2.00036 7.80863 2.32461 6.60402 2.94594C5.39941 3.56727 4.36086 4.46766 3.575 5.572C2.78914 6.67633 2.27878 7.95259 2.08647 9.29429C1.89417 10.636 2.02551 12.0042 2.46954 13.2848C2.91357 14.5654 3.65741 15.7213 4.639 16.656C5.62059 17.5906 6.81147 18.277 8.11228 18.6578C9.41309 19.0387 10.7861 19.1029 12.1168 18.8452C13.4475 18.5874 14.6972 18.0152 15.7618 17.1762L19.4138 20.8282C19.6024 21.0104 19.855 21.1112 20.1172 21.1089C20.3794 21.1066 20.6302 21.0015 20.8156 20.8161C21.001 20.6307 21.1062 20.3798 21.1084 20.1176C21.1107 19.8554 21.0099 19.6028 20.8278 19.4142L17.1758 15.7622C18.1638 14.5089 18.7789 13.0026 18.9509 11.416C19.1228 9.82929 18.8446 8.22626 18.148 6.79034C17.4514 5.35441 16.3646 4.1436 15.0121 3.29648C13.6595 2.44935 12.0957 2.00014 10.4998 2.00024ZM3.99977 10.5002C3.99977 8.77634 4.68458 7.12304 5.90357 5.90405C7.12256 4.68506 8.77586 4.00024 10.4998 4.00024C12.2237 4.00024 13.877 4.68506 15.096 5.90405C16.3149 7.12304 16.9998 8.77634 16.9998 10.5002C16.9998 12.2242 16.3149 13.8775 15.096 15.0964C13.877 16.3154 12.2237 17.0002 10.4998 17.0002C8.77586 17.0002 7.12256 16.3154 5.90357 15.0964C4.68458 13.8775 3.99977 12.2242 3.99977 10.5002Z" fill="black"/>
</svg>
