<svg width="16" height="16" viewBox="0 0 16 16" fill="none" xmlns="http://www.w3.org/2000/svg">
<g clip-path="url(#clip0_171_205)">
<path d="M7 2.00043H5C4.54037 2.00043 4.08525 2.09096 3.66061 2.26685C3.23597 2.44274 2.85013 2.70055 2.52513 3.02555C2.20012 3.35056 1.94231 3.7364 1.76642 4.16104C1.59053 4.58567 1.5 5.0408 1.5 5.50043C1.5 5.96005 1.59053 6.41518 1.76642 6.83982C1.94231 7.26446 2.20012 7.6503 2.52513 7.9753C2.85013 8.30031 3.23597 8.55811 3.66061 8.73401C4.08525 8.9099 4.54037 9.00043 5 9.00043H7V12.0004H2.5V14.0004H7V16.0004H9V14.0004H11C11.9283 14.0004 12.8185 13.6317 13.4749 12.9753C14.1313 12.3189 14.5 11.4287 14.5 10.5004C14.5 9.57217 14.1313 8.68193 13.4749 8.02555C12.8185 7.36918 11.9283 7.00043 11 7.00043H9V4.00043H13.5V2.00043H9V0.000427246H7V2.00043ZM9 9.00043H11C11.3978 9.00043 11.7794 9.15846 12.0607 9.43977C12.342 9.72107 12.5 10.1026 12.5 10.5004C12.5 10.8983 12.342 11.2798 12.0607 11.5611C11.7794 11.8424 11.3978 12.0004 11 12.0004H9V9.00043ZM7 7.00043H5C4.80302 7.00043 4.60796 6.96163 4.42597 6.88625C4.24399 6.81086 4.07863 6.70038 3.93934 6.56109C3.80005 6.4218 3.68956 6.25644 3.61418 6.07445C3.5388 5.89246 3.5 5.69741 3.5 5.50043C3.5 5.30344 3.5388 5.10839 3.61418 4.9264C3.68956 4.74441 3.80005 4.57905 3.93934 4.43977C4.07863 4.30048 4.24399 4.18999 4.42597 4.11461C4.60796 4.03923 4.80302 4.00043 5 4.00043H7V7.00043Z" fill="black"/>
</g>
<defs>
<clipPath id="clip0_171_205">
<rect width="16" height="16" fill="white" transform="translate(0 0.000427246)"/>
</clipPath>
</defs>
</svg>
